<?xml version="1.0" encoding="UTF-8" standalone="no"?>
<svg
   xmlns="http://www.w3.org/2000/svg"
   width="200.00053"
   height="181.52299"
   viewBox="0 0 52.916809 48.027958"
   version="1.1"
   id="svg8">
  <g id="layer1"
     transform="translate(-67.022153,-104.90554)">
    <path
       style="fill:#bb991d"
       d="m 82.005518,105.48136 c -9.370871,3.8369 -14.983413,12.86082 -14.983365,22.98677 7.8e-5,13.7761 10.465075,24.03028 25.716865,24.38172 0.152427,-15.78326 -1.360188,-12.31749 -0.364504,-28.10074 l -6.831189,-19.84357 z"
       id="path10-7" />
    <path
       style="fill:#f8d34c;"
       d="M 85.543325,104.90554 A 24.944022,24.944022 0 0 0 70.051011,127.98962 24.944022,24.944022 0 0 0 94.994892,152.9335 24.944022,24.944022 0 0 0 119.93896,127.98962 24.944022,24.944022 0 0 0 105.54747,105.38764 L 96.106083,124.2706 Z"
       id="path10" />
    <path
       style="fill:#bb991d"
       d="m 85.470951,108.35941 c -0.899808,0.4368 -1.768636,0.93615 -2.599172,1.49313 l 1.562118,2.33047 c 0.722712,-0.48467 1.479569,-0.92004 2.262201,-1.29995 z m 20.180439,0.59188 -1.37257,2.44739 c 0.75964,0.42597 1.49026,0.90403 2.18304,1.42994 l 1.69647,-2.2346 c -0.79685,-0.60491 -1.63534,-1.15398 -2.50694,-1.64273 z m -25.147843,2.73352 c -0.746252,0.66369 -1.448056,1.37845 -2.097348,2.13947 l 2.134386,1.82138 c 0.564584,-0.66174 1.175981,-1.28506 1.827191,-1.86422 z m 29.911903,0.87584 -1.98406,1.98405 c 0.61662,0.61659 1.19126,1.2741 1.71608,1.96735 l 2.23678,-1.69356 c -0.60405,-0.79792 -1.26295,-1.55203 -1.9688,-2.25784 z m -33.79432,3.66745 c -0.538841,0.84068 -1.021254,1.71938 -1.440111,2.62895 l 2.547609,1.17358 c 0.363449,-0.78924 0.783829,-1.55449 1.254197,-2.28834 z m 37.40513,1.09443 -2.44594,1.37402 c 0.42637,0.75871 0.79986,1.54735 1.11694,2.35734 l 2.61297,-1.02253 c -0.36467,-0.93157 -0.7941,-1.83713 -1.28397,-2.70883 z m -39.909892,4.33413 c -0.290732,0.95762 -0.513633,1.93483 -0.668131,2.92307 l 2.771288,0.43356 c 0.134369,-0.85949 0.329145,-1.7099 0.581709,-2.54181 z m 42.090752,1.23313 -2.72771,0.65506 c 0.20307,0.8455 0.34748,1.70609 0.43138,2.5723 l 2.79235,-0.27088 c -0.0964,-0.99524 -0.26233,-1.9835 -0.49602,-2.95648 z m -43.019599,4.6711 c -0.01995,0.99885 0.02842,1.99934 0.145246,2.99207 l 2.785812,-0.32753 c -0.10175,-0.86465 -0.14376,-1.73766 -0.126363,-2.60861 z m 40.814039,0.4263 c -1.3e-4,0.87273 -0.0585,1.74443 -0.17719,2.60571 l 2.77927,0.38272 c 0.13664,-0.99153 0.20319,-1.99022 0.20334,-2.9877 z m -37.400765,4.804 -2.715368,0.7059 c 0.251559,0.96806 0.570789,1.91825 0.95499,2.84246 l 2.590457,-1.07627 c -0.333695,-0.80272 -0.611279,-1.63009 -0.830079,-2.47209 z m 36.691245,0.35803 c -0.23501,0.83691 -0.52868,1.65853 -0.87801,2.45611 l 2.5694,1.12565 c 0.40099,-0.91554 0.73956,-1.85912 1.01018,-2.82285 z m -34.697021,4.45106 -2.419794,1.41977 c 0.506139,0.86257 1.072446,1.69007 1.692113,2.47427 l 2.201199,-1.73932 c -0.53985,-0.68319 -1.033151,-1.40425 -1.473518,-2.15472 z m 32.608391,0.31881 c -0.45457,0.74153 -0.96177,1.4521 -1.51492,2.12495 l 2.1678,1.78144 c 0.6345,-0.77182 1.21645,-1.58791 1.73931,-2.44086 z m -29.379579,3.77131 -1.945566,2.02037 c 0.720471,0.69384 1.488589,1.33686 2.296334,1.9245 l 1.649992,-2.26801 c -0.704589,-0.5126 -1.374103,-1.07337 -2.00076,-1.67686 z m 26.072329,0.25418 c -0.63887,0.59151 -1.31883,1.13903 -2.03271,1.63692 l 1.60496,2.30142 c 0.82009,-0.57198 1.59993,-1.20041 2.33338,-1.87948 z m -21.858751,2.8105 -1.32682,2.47208 c 0.881788,0.47312 1.796618,0.88369 2.734977,1.22951 l 0.970241,-2.63185 c -0.816456,-0.3009 -1.612203,-0.65864 -2.378398,-1.06974 z m 17.587801,0.17139 c -0.77555,0.39609 -1.57824,0.73855 -2.39946,1.02253 l 0.91723,2.65146 c 0.94633,-0.32724 1.86821,-0.72122 2.75821,-1.17576 z m -12.70464,1.63039 -0.598413,2.74078 c 0.976853,0.2134 1.967728,0.35884 2.964465,0.43574 l 0.21569,-2.79743 c -0.86798,-0.067 -1.73142,-0.19334 -2.581742,-0.37909 z m 7.784443,0.0748 c -0.852916,0.16943 -1.718448,0.27986 -2.58755,0.32971 l 0.160496,2.80033 c 0.997963,-0.0572 1.99249,-0.1834 2.973903,-0.37836 z"
       id="path837" />
    <path
       style="fill:#bb991d;"
       d="m 105.54746,105.38764 -5.66505,2.37193 -6.094128,12.59428 2.317803,3.91674 9.441375,-18.88295"
       id="path902" />
    <g id="path1039"
       style="opacity:1"
       transform="matrix(0.37182901,0,0,0.37182901,58.721775,80.983502)">
      <path
         style="color:#000000;font-style:normal;font-variant:normal;font-weight:normal;font-stretch:normal;font-size:medium;line-height:normal;font-family:sans-serif;font-variant-ligatures:normal;font-variant-position:normal;font-variant-caps:normal;font-variant-numeric:normal;font-variant-alternates:normal;font-variant-east-asian:normal;font-feature-settings:normal;font-variation-settings:normal;text-indent:0;text-align:start;text-decoration:none;text-decoration-line:none;text-decoration-style:solid;text-decoration-color:#000000;letter-spacing:normal;word-spacing:normal;text-transform:none;writing-mode:lr-tb;direction:ltr;text-orientation:mixed;dominant-baseline:auto;baseline-shift:baseline;text-anchor:start;white-space:normal;shape-padding:0;shape-margin:0;inline-size:0;clip-rule:nonzero;display:inline;overflow:visible;visibility:visible;isolation:auto;mix-blend-mode:normal;color-interpolation:sRGB;color-interpolation-filters:linearRGB;solid-color:#000000;solid-opacity:1;vector-effect:none;fill:#000000;fill-opacity:0;fill-rule:nonzero;stroke:none;stroke-width:6.865;stroke-linecap:butt;stroke-linejoin:miter;stroke-miterlimit:4;stroke-dasharray:none;stroke-dashoffset:0;stroke-opacity:1;paint-order:normal;color-rendering:auto;image-rendering:auto;shape-rendering:auto;text-rendering:auto;enable-background:accumulate;stop-color:#000000;stop-opacity:1"
         d="m 73.894343,110.36905 26.647317,43.46725 24.19048,-44.60119"
         id="path1050" />
      <path
         style="fill:#bb991d"
         d="M 121.71484,107.59766 100.35938,146.9707 76.158854,107.44234 h -7.457961 l 32.021767,53.25883 28.44475,-53.25883 z"
         id="path1052" />
    </g>
    <path
       style="fill:#bb991d;"
       d="m 84.724388,129.27697 -0.0044,1.51128 22.908152,0.0704 0.004,-1.51128 z"
       id="path1041" />
  </g>
</svg>
